<?xml version="1.0" encoding="utf-8"?>
<!-- Generator: Adobe Illustrator 27.5.0, SVG Export Plug-In . SVG Version: 6.00 Build 0)  -->
<svg version="1.1" id="Camada_1" xmlns="http://www.w3.org/2000/svg" xmlns:xlink="http://www.w3.org/1999/xlink" x="0px" y="0px"
	 viewBox="0 0 164 48" style="enable-background:new 0 0 164 48;" xml:space="preserve">
<style type="text/css">
	.st0{fill-rule:evenodd;clip-rule:evenodd;fill:#FFFFFF;}
	.st1{fill-rule:evenodd;clip-rule:evenodd;fill:#BE1818;}
	.st2{fill-rule:evenodd;clip-rule:evenodd;fill:#173E70;}
</style>
<g>
	<path class="st0" d="M67.36,1.26h77.24c10.36,0,18.85,10.13,18.85,22.52v0.45c0,12.38-8.48,22.52-18.85,22.52H67.36
		c-10.36,0-18.84-10.13-18.84-22.52v-0.45C48.51,11.39,56.99,1.26,67.36,1.26L67.36,1.26z"/>
	<path class="st1" d="M23.07,1.26h43.38c-7.41,3.98-12.52,12.22-12.52,21.69v0.49c0,11.05,6.98,20.44,16.43,23.31H23.07
		c-12.38,0-22.52-10.13-22.52-22.52v-0.45C0.56,11.39,10.69,1.26,23.07,1.26L23.07,1.26z"/>
	<path class="st1" d="M154.13,7.78c4.47,3.85,7.34,9.77,7.34,16.37l0,0.42c0,11.54-8.78,20.98-19.51,20.98H72.11
		c-1.77-0.85-3.42-1.94-4.91-3.22c0.09,0,0.19,0,0.28,0h71.48c10.73,0,19.51-9.44,19.51-20.98l0-0.42
		C158.47,15.97,156.84,11.39,154.13,7.78L154.13,7.78z"/>
	<path class="st0" d="M18.49,15.72h6.77l1.2-7.02c0.1-0.57,0.42-1.08,0.85-1.45c0.44-0.37,0.99-0.6,1.57-0.6h9.64
		c0.12,0,0.24,0.01,0.36,0.03c0.45,0.08,0.83,0.31,1.1,0.63c0.27,0.32,0.42,0.74,0.42,1.2c0,0.12-0.01,0.24-0.03,0.37l-1.29,6.83
		h7.53c0.12,0,0.25,0.01,0.36,0.03c0.46,0.08,0.85,0.31,1.12,0.64c0.27,0.33,0.43,0.75,0.43,1.22c0,0.12-0.01,0.25-0.03,0.38
		l-1.45,9.26c-0.1,0.58-0.43,1.1-0.87,1.48c-0.44,0.38-1.01,0.61-1.59,0.61h-7.97l-1.12,7.23c-0.1,0.57-0.42,1.08-0.86,1.45
		c-0.44,0.37-0.99,0.6-1.56,0.6h-9.64c-0.12,0-0.24-0.01-0.36-0.03c-0.45-0.08-0.83-0.31-1.1-0.63c-0.27-0.32-0.42-0.74-0.42-1.2
		c0-0.12,0.01-0.24,0.03-0.37l1.33-7.05h-6.58c-0.12,0-0.25-0.01-0.36-0.03c-0.46-0.08-0.85-0.31-1.12-0.64
		c-0.27-0.33-0.43-0.75-0.43-1.22c0-0.12,0.01-0.25,0.03-0.38l1.58-9.26c0.1-0.58,0.43-1.1,0.87-1.48
		C17.34,15.95,17.91,15.72,18.49,15.72L18.49,15.72z"/>
	<path class="st2" d="M82.92,22.09c-0.39,1.76-1.12,3.33-2.19,4.72c-1.07,1.39-2.28,2.45-3.61,3.2c-1.12,0.64-2.27,1.04-3.46,1.22
		c-1.19,0.18-2.44,0.27-3.74,0.27h-2.55c-1.44-0.07-2.62-1.19-2.78-2.6l2.79-12.71h0l0-0.01l0.17-0.77c0.5-1.54,1.91-2.68,3.6-2.77
		l2.86,0c1.32,0,2.55,0.09,3.67,0.25c1.12,0.17,2.12,0.58,2.99,1.23c1.07,0.79,1.81,1.86,2.24,3.21
		C83.3,18.68,83.31,20.27,82.92,22.09L82.92,22.09z M78.06,22.05c0.27-1.24,0.29-2.3,0.06-3.19c-0.23-0.89-0.74-1.57-1.52-2.07
		c-0.56-0.36-1.19-0.55-1.89-0.58c-0.7-0.03-1.54-0.05-2.51-0.05h-0.09l-2.59,11.81h0.09c1.06,0,1.96-0.02,2.7-0.06
		c0.74-0.04,1.48-0.26,2.23-0.68c0.89-0.49,1.63-1.17,2.22-2.03C77.35,24.35,77.79,23.29,78.06,22.05L78.06,22.05z M95.15,21.47
		h-0.37c-0.15-0.06-0.39-0.1-0.7-0.13c-0.31-0.03-0.67-0.04-1.06-0.04c-0.47,0-0.97,0.07-1.51,0.2c-0.54,0.13-1.07,0.29-1.59,0.48
		l-2.09,9.53h-2c-1.05-0.05-1.9-0.86-2.02-1.89l2.27-10.37h0l0-0.01l0.09-0.42c0.28-0.86,1.06-1.49,2-1.54h2.77l-0.45,2.04
		c0.24-0.19,0.58-0.42,1-0.7c0.42-0.28,0.8-0.51,1.13-0.68c0.36-0.19,0.77-0.36,1.23-0.5c0.46-0.14,0.88-0.21,1.26-0.21
		c0.14,0,0.3,0,0.48,0.01c0.18,0.01,0.33,0.02,0.47,0.04L95.15,21.47L95.15,21.47z M109.86,24.39c-0.51,2.34-1.56,4.18-3.13,5.53
		c-1.57,1.34-3.53,2.02-5.87,2.02c-2.33,0-3.98-0.67-4.97-2.02c-0.99-1.35-1.23-3.19-0.72-5.53c0.52-2.37,1.57-4.22,3.15-5.56
		c1.58-1.34,3.53-2.01,5.86-2.01c2.33,0,3.99,0.67,4.98,2.02C110.14,20.2,110.37,22.04,109.86,24.39L109.86,24.39z M105.3,24.42
		c0.18-0.84,0.27-1.55,0.26-2.11c-0.02-0.56-0.11-1.01-0.28-1.35c-0.18-0.35-0.43-0.6-0.72-0.74c-0.3-0.14-0.66-0.21-1.08-0.21
		c-0.4,0-0.77,0.06-1.12,0.19c-0.35,0.12-0.69,0.35-1.04,0.7c-0.32,0.33-0.63,0.78-0.9,1.36c-0.28,0.58-0.51,1.3-0.7,2.17
		c-0.19,0.87-0.27,1.57-0.25,2.11c0.03,0.54,0.12,0.96,0.28,1.28c0.16,0.33,0.41,0.57,0.73,0.72c0.32,0.15,0.7,0.23,1.12,0.23
		c0.36,0,0.74-0.08,1.14-0.23c0.4-0.15,0.74-0.38,1.03-0.68c0.34-0.36,0.64-0.8,0.88-1.31C104.88,26.03,105.1,25.32,105.3,24.42
		L105.3,24.42z M120.13,27.01l1.41-6.44c-0.2-0.1-0.45-0.19-0.75-0.25c-0.31-0.07-0.62-0.1-0.94-0.1c-1.06,0-1.94,0.35-2.63,1.03
		c-0.69,0.69-1.17,1.65-1.44,2.88c-0.13,0.61-0.21,1.14-0.22,1.56c-0.02,0.43,0.05,0.8,0.2,1.14c0.14,0.32,0.37,0.56,0.67,0.73
		c0.31,0.16,0.72,0.25,1.26,0.25c0.4,0,0.8-0.07,1.22-0.2C119.33,27.46,119.73,27.27,120.13,27.01L120.13,27.01z M123.94,29.87
		c-0.29,1.32-0.72,2.43-1.31,3.36c-0.58,0.92-1.26,1.64-2.03,2.15c-0.77,0.52-1.64,0.9-2.62,1.13c-0.97,0.23-2.02,0.35-3.14,0.35
		c-0.94,0-1.83-0.06-2.65-0.18c-0.82-0.13-1.53-0.27-2.11-0.43l0.78-3.56h0.52c0.2,0.09,0.44,0.18,0.72,0.28
		c0.28,0.1,0.56,0.19,0.85,0.28c0.34,0.09,0.68,0.17,1.01,0.23c0.33,0.06,0.68,0.09,1.04,0.09c0.75,0,1.4-0.08,1.93-0.23
		c0.54-0.16,0.96-0.38,1.28-0.67c0.32-0.29,0.57-0.64,0.76-1.04c0.19-0.4,0.35-0.91,0.48-1.51l0.06-0.27
		c-0.59,0.44-1.25,0.79-1.96,1.06c-0.71,0.26-1.41,0.4-2.11,0.4c-1.84,0-3.13-0.6-3.87-1.8c-0.74-1.2-0.84-3.02-0.3-5.47
		c0.24-1.11,0.62-2.11,1.12-3c0.5-0.89,1.1-1.64,1.78-2.27c0.66-0.6,1.39-1.06,2.21-1.39c0.81-0.32,1.62-0.49,2.42-0.49
		c0.73,0,1.35,0.1,1.89,0.28c0.53,0.19,1,0.43,1.41,0.74l0.3-0.63h1.56v0l0,0h0h0.16c1.11,0.04,2.01,0.89,2.13,1.97l0,0
		L123.94,29.87L123.94,29.87z M135.63,27.79l0.65-2.97c-0.77,0.08-1.39,0.14-1.87,0.2c-0.48,0.05-0.96,0.16-1.44,0.32
		c-0.42,0.13-0.76,0.34-1.04,0.61c-0.28,0.28-0.46,0.64-0.57,1.1c-0.15,0.67-0.07,1.12,0.24,1.37c0.31,0.25,0.81,0.37,1.51,0.37
		c0.39,0,0.81-0.09,1.25-0.27C134.81,28.36,135.23,28.11,135.63,27.79L135.63,27.79z M135.14,29.99c-0.36,0.26-0.68,0.48-0.97,0.69
		c-0.29,0.2-0.65,0.4-1.1,0.61c-0.44,0.19-0.86,0.34-1.26,0.44c-0.4,0.1-0.94,0.15-1.61,0.15c-1.26,0-2.21-0.42-2.86-1.27
		c-0.65-0.84-0.83-1.91-0.55-3.19c0.23-1.06,0.63-1.91,1.2-2.56c0.56-0.65,1.28-1.17,2.16-1.54c0.89-0.39,1.91-0.66,3.06-0.81
		c1.15-0.15,2.37-0.27,3.67-0.35l0.02-0.08c0.17-0.78,0-1.33-0.51-1.63c-0.51-0.3-1.35-0.45-2.5-0.45c-0.52,0-1.16,0.1-1.9,0.28
		c-0.74,0.19-1.48,0.43-2.21,0.73h-0.38l0.75-3.43c0.47-0.13,1.21-0.28,2.23-0.45c1.02-0.17,2.03-0.26,3.02-0.26
		c2.45,0,4.15,0.41,5.09,1.22c0.94,0.81,1.23,2.06,0.86,3.73l-2.12,9.67h-4.41L135.14,29.99L135.14,29.99z M144.67,31.5h-0.2h0
		l-0.01,0v0h-1.95l4.32-19.71h0.81v0.01c0.04,0,0.07,0,0.11,0c1.52,0,2.77,1.14,2.94,2.61l-3.17,14.47h0l0,0.03l-0.12,0.53
		C147.02,30.6,145.95,31.46,144.67,31.5L144.67,31.5z"/>
</g>
</svg>
